<svg xmlns="http://www.w3.org/2000/svg" xmlns:xlink="http://www.w3.org/1999/xlink" version="1.1" x="0px" y="0px" viewBox="0 0 80 100" enable-background="new 0 0 80 80" xml:space="preserve"><g><path fill="#000000" d="M38,32c-2.757,0-5-2.243-5-5s2.243-5,5-5s5,2.243,5,5S40.757,32,38,32z M38,24c-1.654,0-3,1.346-3,3   s1.346,3,3,3s3-1.346,3-3S39.654,24,38,24z"/></g><g><path fill="#000000" d="M43,55H33v-8.382l-2-1V34.479c0-0.879,0.907-1.547,1.753-1.288c3.484,1.073,7.007,1.073,10.495,0   C44.087,32.928,45,33.599,45,34.479v11.139l-2,1V55z M35,53h6v-7.618l2-1v-9.041c-3.325,0.875-6.676,0.875-10,0v9.041l2,1V53z"/></g><g><path fill="#000000" d="M38,59c-1.842,0-18-0.126-18-4.5c0-2.658,6.074-3.756,11.17-4.21l0.178,1.992   c-6.157,0.548-8.832,1.677-9.306,2.22C22.807,55.442,28.503,57,38,57c9.496,0,15.192-1.558,15.958-2.498   c-0.472-0.54-3.127-1.663-9.233-2.214l0.18-1.992C54.075,51.124,56,53.039,56,54.5C56,58.874,39.842,59,38,59z"/></g></svg>