<svg xmlns="http://www.w3.org/2000/svg" xmlns:xlink="http://www.w3.org/1999/xlink" version="1.1" x="0px" y="0px" viewBox="0 0 100 78.34" enable-background="new 0 0 100 62.672" xml:space="preserve"><path d="M94.259,4.327H80.052c0.207,0.152,0.417,0.299,0.622,0.456c15.301,11.692,18.237,33.652,6.546,48.953  c-2.066,2.705-4.467,5.052-7.123,7.003h14.162c3.172,0,5.741-2.57,5.741-5.741v-44.93C100,6.897,97.431,4.327,94.259,4.327z"/><path d="M31.722,11.329c2.066-2.705,4.467-5.052,7.123-7.002H5.741C2.57,4.327,0,6.897,0,10.067v44.93  c0,3.171,2.57,5.741,5.741,5.741h33.15c-0.208-0.152-0.417-0.3-0.623-0.457C22.967,48.59,20.03,26.63,31.722,11.329z M18.177,20.584  h-5.473c-2.267,0-4.104-1.838-4.104-4.104c0-2.268,1.837-4.105,4.104-4.105h5.473c2.267,0,4.104,1.837,4.104,4.105  C22.28,18.746,20.443,20.584,18.177,20.584z"/><path d="M77.77,8.584c-2.364-1.807-4.933-3.231-7.642-4.258c-3.365-1.275-6.947-1.935-10.633-1.935  c-3.721,0-7.322,0.673-10.678,1.935c-5.198,1.955-9.8,5.333-13.295,9.907c-10.09,13.204-7.555,32.157,5.65,42.247  c2.364,1.807,4.933,3.23,7.643,4.258c3.363,1.274,6.945,1.934,10.631,1.934c3.721,0,7.322-0.672,10.678-1.934  c5.198-1.955,9.8-5.334,13.295-9.908C93.509,37.626,90.975,18.674,77.77,8.584z M59.694,11.528c-5.704,0.534-10.969,3.45-14.445,8  c-3.492,4.57-4.918,10.441-3.91,16.107c0.23,1.301-0.637,2.542-1.938,2.773c-0.141,0.025-0.282,0.037-0.421,0.037  c-1.138,0-2.146-0.814-2.353-1.975c-1.24-6.981,0.517-14.217,4.82-19.848c4.283-5.607,10.771-9.2,17.8-9.858  c1.32-0.125,2.481,0.843,2.604,2.158C61.976,10.239,61.009,11.405,59.694,11.528z"/><path d="M20.808,1.558c0,0.86-0.697,1.558-1.559,1.558h-7.617c-0.861,0-1.559-0.698-1.559-1.558l0,0c0-0.86,0.697-1.558,1.559-1.558  h7.617C20.11,0,20.808,0.697,20.808,1.558L20.808,1.558z"/></svg>