<svg xmlns="http://www.w3.org/2000/svg" xmlns:xlink="http://www.w3.org/1999/xlink" version="1.1" x="0px" y="0px" viewBox="0 0 100 125" enable-background="new 0 0 100 100" xml:space="preserve"><g><path d="M30.374,13.212c8.902-2.616,17.767-3.96,26.633-3.96c8.248,0,16.532,1.199,24.78,3.706L69.324,27.673   c-0.69,0.69-0.763,1.817-0.182,2.652l10.937,18.494c-7.994-1.708-16.023-2.507-24.017-2.507c-8.575-0.036-17.15,0.872-25.688,2.471   V13.212z M34.552,81.992c-1.126-0.291-1.744-1.49-1.417-2.616c0.327-1.126,1.49-1.78,2.616-1.453   c2.434,0.727,4.433,1.744,5.85,2.979c1.671,1.453,2.616,3.197,2.616,5.05c0,2.798-1.998,5.196-5.232,6.795   C36.187,94.128,32.372,95,28.23,95s-7.921-0.872-10.719-2.253c-3.234-1.599-5.232-3.997-5.232-6.795c0-1.853,0.908-3.597,2.58-5.05   c1.417-1.235,3.452-2.253,5.886-2.979c1.126-0.327,2.289,0.327,2.616,1.453c0.327,1.126-0.327,2.325-1.453,2.616   c-1.817,0.545-3.27,1.272-4.251,2.107c-0.727,0.618-1.126,1.272-1.126,1.853c0,1.054,1.126,2.107,2.87,3.016   c2.216,1.09,5.341,1.78,8.829,1.78c3.524,0,6.613-0.69,8.829-1.78c1.78-0.908,2.87-1.962,2.87-3.016c0-0.581-0.4-1.235-1.09-1.853   C37.859,83.264,36.405,82.537,34.552,81.992L34.552,81.992z M86.764,13.793c0.4-0.254,0.727-0.654,0.872-1.126   c0.327-1.126-0.327-2.325-1.453-2.689C76.409,6.599,66.599,5,56.825,5c-9.738,0-19.439,1.562-29.14,4.505   c-0.908,0.218-1.562,1.017-1.562,1.998v1.453v0.036v70.198c0,1.163,0.945,2.107,2.107,2.107c1.199,0,2.144-0.945,2.144-2.107   V53.179c8.648-1.708,17.259-2.616,25.87-2.616c9.156,0,18.276,1.09,27.432,3.415c1.09,0.291,2.18-0.327,2.471-1.381   c0.218-0.581,0.218-1.235-0.109-1.817L73.466,29.635L86.764,13.793z"/></g></svg>